<?xml version="1.0" standalone="no"?>
<!DOCTYPE svg PUBLIC "-//W3C//DTD SVG 20010904//EN"
 "http://www.w3.org/TR/2001/REC-SVG-20010904/DTD/svg10.dtd">
<svg version="1.0" xmlns="http://www.w3.org/2000/svg"
 width="1024.000000pt" height="1024.000000pt" viewBox="0 0 1024.000000 1024.000000"
 preserveAspectRatio="xMidYMid meet">

<g transform="translate(0.000000,1024.000000) scale(0.100000,-0.100000)"
fill="#000000" stroke="none">
<path d="M5318 8583 c7 -3 16 -2 19 1 4 3 -2 6 -13 5 -11 0 -14 -3 -6 -6z"/>
<path d="M4648 8573 c7 -3 16 -2 19 1 4 3 -2 6 -13 5 -11 0 -14 -3 -6 -6z"/>
<path d="M4698 8565 c-419 -57 -804 -200 -1196 -445 -145 -90 -180 -120 -206
-173 -30 -64 -11 -164 40 -209 51 -45 70 -47 536 -53 801 -9 926 -18 1163 -75
249 -61 542 -205 778 -383 45 -34 75 -63 71 -69 -4 -7 -2 -8 5 -4 7 5 41 -19
88 -60 124 -112 373 -391 373 -420 0 -9 -369 -244 -383 -244 -3 0 -79 43 -169
96 -89 53 -280 165 -423 249 -292 170 -596 349 -820 480 -190 112 -255 135
-381 135 -115 0 -184 -21 -299 -90 -69 -41 -343 -201 -1535 -897 -107 -63
-216 -131 -243 -151 -53 -41 -113 -114 -146 -179 -52 -104 -51 -73 -51 -1263
0 -1218 -3 -1148 62 -1272 48 -91 132 -162 328 -278 208 -122 245 -144 595
-355 252 -151 690 -412 990 -589 145 -86 197 -105 305 -113 82 -6 172 12 244
49 23 12 268 157 546 323 278 166 690 411 915 545 226 133 431 258 457 277
104 75 175 188 203 318 22 105 22 2076 0 2180 -8 38 -15 71 -15 73 0 1 17 -8
38 -21 98 -62 937 -501 975 -511 62 -15 137 48 156 131 6 26 31 197 56 378 25
182 68 481 95 665 76 519 100 689 100 712 0 12 -9 41 -20 64 -26 52 -75 79
-128 69 -41 -8 -152 -62 -232 -113 -30 -19 -78 -46 -107 -58 l-52 -23 -24 52
c-52 115 -406 493 -610 651 -295 229 -756 450 -1132 542 -217 53 -325 66 -590
69 -179 3 -280 0 -357 -10z m662 -435 c229 -42 378 -89 597 -185 264 -117 569
-318 768 -507 175 -165 377 -411 474 -575 24 -40 49 -73 57 -73 8 0 45 20 84
44 71 44 173 75 206 62 21 -8 17 -66 -26 -346 -27 -181 -90 -602 -90 -607 0
-1 -7 -9 -16 -17 -27 -27 -77 -19 -166 28 -45 24 -220 114 -387 200 -167 85
-310 161 -318 167 -8 7 -13 24 -11 38 3 22 24 38 128 97 99 57 126 77 128 95
6 51 -133 294 -277 484 -64 86 -279 298 -391 387 -379 300 -748 459 -1240 535
-164 25 -512 25 -672 0 -64 -10 -149 -27 -188 -36 -38 -10 -70 -15 -70 -11 0
13 141 78 256 119 120 43 339 95 491 116 149 21 513 13 663 -15z m-1400 -1165
c0 -3 -69 -101 -153 -218 -84 -116 -182 -254 -217 -306 -44 -64 -74 -98 -95
-106 -16 -7 -91 -25 -165 -40 -74 -15 -169 -38 -210 -50 -41 -13 -111 -33
-155 -44 -44 -11 -100 -27 -125 -36 -83 -30 -353 -105 -376 -105 -13 0 -25 4
-28 8 -2 4 64 49 147 99 357 213 1362 803 1369 803 5 0 8 -2 8 -5z m518 -43
c95 -55 895 -523 1220 -714 149 -88 272 -164 272 -169 0 -9 -21 -13 -50 -10
-8 1 -99 29 -202 61 -232 74 -443 132 -601 166 -67 14 -140 31 -162 36 -34 8
-84 53 -337 306 -236 235 -298 302 -298 322 0 62 53 63 158 2z m1062 -1257
c114 -30 205 -80 286 -157 119 -114 187 -238 215 -398 18 -103 15 -370 -5
-492 -57 -344 -265 -565 -571 -607 -42 -6 -185 -11 -317 -11 -211 0 -244 2
-260 17 -17 15 -18 54 -18 829 0 748 1 814 17 829 15 16 44 17 302 12 228 -4
299 -8 351 -22z m-1840 -14 c107 -32 183 -76 242 -140 100 -109 146 -259 127
-415 -20 -164 -88 -274 -238 -387 l-35 -25 131 -271 c72 -148 141 -293 154
-322 36 -84 33 -85 -165 -89 l-167 -2 -81 167 c-45 93 -111 236 -148 318 l-67
150 -42 3 c-73 5 -71 14 -71 -311 0 -256 -2 -293 -17 -309 -14 -16 -33 -18
-158 -18 -127 0 -144 2 -159 19 -17 18 -18 72 -16 822 1 741 2 805 18 822 16
18 33 19 317 14 273 -4 307 -6 375 -26z m914 7 c14 -20 16 -113 16 -811 0
-791 -1 -817 -34 -839 -19 -13 -301 -9 -314 4 -9 9 -12 205 -12 822 0 739 1
811 17 828 14 16 33 18 164 18 141 0 149 -1 163 -22z m-2341 -240 c14 -51 64
-228 111 -393 117 -417 116 -404 62 -545 -39 -104 -196 -464 -207 -475 -5 -5
-9 280 -9 748 0 418 4 757 9 757 4 0 20 -42 34 -92z m3677 -1886 c0 -4 -174
-111 -387 -236 -214 -126 -546 -323 -739 -438 -194 -114 -355 -208 -358 -208
-24 0 14 62 149 240 86 113 205 273 265 355 164 225 140 204 245 215 50 5 162
14 250 20 219 15 463 39 505 50 47 11 70 12 70 2z m-3115 -38 c187 -14 402
-29 477 -34 75 -5 145 -13 156 -19 19 -10 216 -257 347 -436 107 -145 205
-307 205 -337 0 -55 -45 -39 -269 94 -114 67 -442 261 -731 431 -289 169 -529
313 -534 318 -13 12 -47 13 349 -17z"/>
<path d="M5233 5369 c-10 -10 -13 -129 -13 -526 l0 -513 25 -16 c59 -39 272
21 337 94 36 42 69 114 89 192 19 77 19 425 0 500 -31 123 -85 196 -183 247
-44 22 -69 27 -148 31 -69 3 -98 0 -107 -9z"/>
<path d="M3352 5368 c-17 -17 -17 -419 0 -436 8 -8 46 -12 108 -12 121 0 167
19 204 83 41 70 53 149 32 220 -21 71 -73 132 -124 147 -52 14 -205 13 -220
-2z"/>
<path d="M3828 7663 c7 -3 16 -2 19 1 4 3 -2 6 -13 5 -11 0 -14 -3 -6 -6z"/>
<path d="M4058 7663 c12 -2 32 -2 45 0 12 2 2 4 -23 4 -25 0 -35 -2 -22 -4z"/>
<path d="M4138 7663 c7 -3 16 -2 19 1 4 3 -2 6 -13 5 -11 0 -14 -3 -6 -6z"/>
<path d="M4243 7663 c15 -2 39 -2 55 0 15 2 2 4 -28 4 -30 0 -43 -2 -27 -4z"/>
<path d="M4598 7653 c7 -3 16 -2 19 1 4 3 -2 6 -13 5 -11 0 -14 -3 -6 -6z"/>
<path d="M7951 7194 c0 -11 3 -14 6 -6 3 7 2 16 -1 19 -3 4 -6 -2 -5 -13z"/>
<path d="M6572 5460 c0 -19 2 -27 5 -17 2 9 2 25 0 35 -3 9 -5 1 -5 -18z"/>
<path d="M6572 5090 c0 -14 2 -19 5 -12 2 6 2 18 0 25 -3 6 -5 1 -5 -13z"/>
<path d="M6573 4995 c0 -22 2 -30 4 -17 2 12 2 30 0 40 -3 9 -5 -1 -4 -23z"/>
<path d="M6573 4915 c0 -22 2 -30 4 -17 2 12 2 30 0 40 -3 9 -5 -1 -4 -23z"/>
<path d="M6571 4404 c0 -11 3 -14 6 -6 3 7 2 16 -1 19 -3 4 -6 -2 -5 -13z"/>
<path d="M6571 4334 c0 -11 3 -14 6 -6 3 7 2 16 -1 19 -3 4 -6 -2 -5 -13z"/>
<path d="M6572 4260 c0 -19 2 -27 5 -17 2 9 2 25 0 35 -3 9 -5 1 -5 -18z"/>
<path d="M6571 4144 c0 -11 3 -14 6 -6 3 7 2 16 -1 19 -3 4 -6 -2 -5 -13z"/>
<path d="M6571 3974 c0 -11 3 -14 6 -6 3 7 2 16 -1 19 -3 4 -6 -2 -5 -13z"/>
<path d="M6573 3910 c0 -25 2 -35 4 -22 2 12 2 32 0 45 -2 12 -4 2 -4 -23z"/>
<path d="M6571 3844 c0 -11 3 -14 6 -6 3 7 2 16 -1 19 -3 4 -6 -2 -5 -13z"/>
<path d="M6572 3790 c0 -19 2 -27 5 -17 2 9 2 25 0 35 -3 9 -5 1 -5 -18z"/>
<path d="M6562 3720 c0 -14 2 -19 5 -12 2 6 2 18 0 25 -3 6 -5 1 -5 -13z"/>
</g>
</svg>
