<?xml version="1.0" encoding="UTF-8"?>
<svg version="1.1" xmlns="http://www.w3.org/2000/svg" width="607" height="638">
<path d="M0 0 C1.38338058 0.00323273 1.38338058 0.00323273 2.79470825 0.00653076 C17.19456687 0.06039693 31.25733688 0.61047611 45.4375 3.3125 C46.49855957 3.51117676 47.55961914 3.70985352 48.65283203 3.91455078 C97.90104848 13.40587011 147.48740491 35.162591 185.4375 68.3125 C186.37464844 69.12074219 187.31179688 69.92898437 188.27734375 70.76171875 C194.93818606 76.69627123 201.25254653 83.00573148 207.5854187 89.28619385 C208.59403658 90.28611485 209.60401817 91.28466258 210.61550903 92.28167725 C217.35735187 98.93842955 223.59612845 105.84621055 229.4375 113.3125 C229.89954834 113.9003125 230.36159668 114.488125 230.83764648 115.09375 C234.81366497 120.23725403 238.25274781 125.16788448 240.4375 131.3125 C248.30018435 128.36576424 255.24177882 124.72438724 262.3359375 120.24609375 C269.27318367 115.92123625 275.99695708 111.8102796 284.4375 112.3125 C288.43566651 113.44405656 290.64285069 115.06826025 292.875 118.5 C297.82948711 130.42231563 292.18922413 149.03996242 290.33984375 161.40234375 C290.02588943 163.53554752 289.71257546 165.66884561 289.39985657 167.80223083 C288.56957026 173.45645053 287.73171415 179.10952253 286.89222717 184.76238251 C285.50991041 194.08322331 284.14139987 203.40610988 282.77093124 212.72869873 C282.43156094 215.03645849 282.09191318 217.34417746 281.75198746 219.65185547 C279.70026925 233.58183717 277.68293307 247.51516061 275.76953125 261.46484375 C275.6279852 262.49370728 275.6279852 262.49370728 275.48357964 263.54335594 C274.56961562 270.18711141 273.66791713 276.83228661 272.78491211 283.48022461 C272.5078783 285.51549336 272.23063226 287.55073325 271.953125 289.5859375 C271.84124344 290.45923203 271.72936188 291.33252655 271.61408997 292.23228455 C269.49762395 307.56380428 269.49762395 307.56380428 264.125 311.8125 C260.92222245 314.21793335 258.53903974 315.39620489 254.4375 315.3125 C248.59213708 313.3515556 243.28954351 310.80112045 237.875 307.875 C236.19303053 306.97726067 234.51072385 306.0801529 232.828125 305.18359375 C231.94962891 304.71421387 231.07113281 304.24483398 230.16601562 303.76123047 C226.46021873 301.79360352 222.73513753 299.86405802 219.01000977 297.93334961 C209.52236808 293.01409933 200.1071646 287.98060403 190.74291992 282.83056641 C182.90262914 278.53171245 174.98205442 274.39563644 167.0234375 270.3203125 C162.29367447 267.88131789 157.78523794 265.38490147 153.4375 262.3125 C153.57850443 262.9454385 153.71950886 263.578377 153.86478615 264.23049545 C155.83887658 274.28722354 155.73411142 284.22075855 155.72802734 294.42285156 C155.73402119 296.43804674 155.74082869 298.45323963 155.74838257 300.46842957 C155.76596179 305.91284693 155.7707345 311.35720132 155.77201414 316.80164433 C155.77344079 320.2109981 155.77772008 323.62033613 155.78300858 327.02968597 C155.80148155 338.94607043 155.80968254 350.8624103 155.80810547 362.77880859 C155.80690456 373.85100382 155.82800418 384.92300396 155.8595928 395.99514985 C155.88582221 405.53187793 155.89646999 415.06854255 155.89519465 424.60530639 C155.89468701 430.28762294 155.9002601 435.96976589 155.92155075 441.6520462 C155.94104599 447.00053865 155.94098099 452.34869388 155.92651749 457.69719887 C155.92444229 459.64813803 155.92905233 461.59909894 155.9412384 463.55000114 C156.04916957 482.04222026 153.96903491 499.2283431 140.875 513.5 C131.14144105 522.39206917 118.57858391 528.69840363 107.25 535.375 C105.84449758 536.20596784 104.43914562 537.03719022 103.03393555 537.86865234 C100.19132129 539.55022792 97.34792716 541.23047261 94.50390625 542.90966797 C90.79112646 545.1024793 87.08238511 547.30198582 83.375 549.50390625 C72.393974 556.02499319 61.39622164 562.51622009 50.37335205 568.96624756 C36.09884764 577.31943473 21.89189707 585.77561753 7.76171875 594.37109375 C5.36200488 595.83077146 2.96226611 597.29040818 0.5625 598.75 C-0.0362796 599.11427094 -0.6350592 599.47854187 -1.25198364 599.85385132 C-10.03953947 605.19790575 -18.86010203 610.48227675 -27.72875977 615.69091797 C-32.18803788 618.31119459 -36.63200066 620.9525008 -41.05078125 623.640625 C-42.39269531 624.45503052 -42.39269531 624.45503052 -43.76171875 625.28588867 C-45.43763529 626.30499749 -47.11105149 627.32823625 -48.78125 628.35668945 C-59.22016859 634.69602849 -67.44140174 637.5088182 -79.625 637.625 C-80.61177734 637.65400391 -81.59855469 637.68300781 -82.61523438 637.71289062 C-94.5256721 637.81428924 -103.44050989 633.16897395 -113.4375 627.125 C-115.53501878 625.87867487 -117.63268176 624.63259239 -119.73046875 623.38671875 C-121.38248291 622.39937744 -121.38248291 622.39937744 -123.06787109 621.39208984 C-126.73650559 619.20359232 -130.42337104 617.04691047 -134.11328125 614.89453125 C-134.74935303 614.523246 -135.3854248 614.15196075 -136.04077148 613.76942444 C-138.54627967 612.30698317 -141.05189335 610.84472299 -143.55780029 609.38296509 C-149.76343564 605.75995813 -155.94013623 602.09824018 -162.05078125 598.31640625 C-168.21895351 594.5009651 -174.46538739 590.83104922 -180.73556519 587.18737793 C-190.91724322 581.26664669 -201.01714001 575.24220592 -211.00390625 568.99658203 C-218.23188733 564.48617456 -225.55484936 560.14797817 -232.90063477 555.83276367 C-237.61255844 553.06270328 -242.29905959 550.26633553 -246.9375 547.375 C-252.00320012 544.2247886 -257.1432535 541.2180286 -262.3046875 538.22729492 C-302.13978432 515.13523505 -302.13978432 515.13523505 -309.6317234 493.17897987 C-310.71166361 488.69286892 -310.8468089 484.64588552 -310.82992554 480.05429077 C-310.83445665 479.14276642 -310.83898776 478.23124208 -310.84365618 477.29209578 C-310.85628031 474.24855216 -310.85468107 471.20518794 -310.85302734 468.16162109 C-310.85901394 465.97481049 -310.86581979 463.78800201 -310.87338257 461.60119629 C-310.89103912 455.66703157 -310.89573789 449.73292454 -310.89701414 443.7987361 C-310.89843681 440.08774817 -310.90270866 436.37677485 -310.90800858 432.66579056 C-310.92555524 420.37738735 -310.93484896 408.08901932 -310.93334763 395.80060343 C-310.93326772 395.13888965 -310.9331878 394.47717587 -310.93310547 393.79541016 C-310.93302371 393.13288099 -310.93294195 392.47035183 -310.93285771 391.78774603 C-310.93209613 381.72904919 -310.94767111 371.67047669 -310.97412109 361.61181641 C-311.00477883 349.9126411 -311.02163542 338.21355766 -311.02019465 326.51434004 C-311.01968584 320.32846947 -311.0253239 314.14275811 -311.04655075 307.95692062 C-311.06598623 302.13410396 -311.06602114 296.31159746 -311.05151749 290.48876953 C-311.0494347 288.35919362 -311.05409844 286.22959802 -311.0662384 284.10005569 C-311.15034407 268.31620517 -309.91034713 255.63614035 -300.5625 242.3125 C-300.14613281 241.70019531 -299.72976563 241.08789062 -299.30078125 240.45703125 C-289.77955212 227.96220504 -272.08512169 220.74651448 -258.81933594 213.18066406 C-254.10392403 210.47584158 -249.42429414 207.71260328 -244.75 204.9375 C-231.38340171 197.01258582 -217.97472543 189.15985206 -204.5625 181.3125 C-203.50208496 180.69197754 -202.44166992 180.07145508 -201.34912109 179.43212891 C-190.06712461 172.83308926 -178.76481316 166.27095323 -167.4375 159.75 C-159.47622561 155.16468674 -151.53312924 150.55141392 -143.625 145.875 C-142.75294922 145.36066406 -141.88089844 144.84632813 -140.98242188 144.31640625 C-136.44102179 141.63180228 -131.91497822 138.92458363 -127.40995789 136.17927551 C-125.01131754 134.71962239 -122.60719931 133.26912582 -120.2026062 131.81930542 C-118.49581438 130.78532699 -116.79670396 129.73870156 -115.09790039 128.69165039 C-104.86799333 122.53113279 -95.24918705 118.53205225 -83.1875 118.75 C-81.81718628 118.77296143 -81.81718628 118.77296143 -80.41918945 118.79638672 C-63.93784668 119.38100684 -51.3875914 128.16189497 -37.62890625 136.46484375 C-32.95865584 139.27889272 -28.25945547 142.04335175 -23.5625 144.8125 C-21.7434695 145.88928899 -19.92445921 146.96611212 -18.10546875 148.04296875 C-11.38250237 152.01568492 -4.63119454 155.93947746 2.1184082 159.86669922 C10.39132505 164.68697143 18.62491948 169.57229587 26.85452271 174.46594238 C34.2172529 178.84158829 41.61090024 183.15261817 49.0625 187.375 C59.05326582 193.03773485 68.89712373 198.93620553 78.73046875 204.8671875 C80.16398682 205.72521973 80.16398682 205.72521973 81.62646484 206.60058594 C83.50909836 207.7471055 85.37427048 208.92277286 87.22119141 210.12597656 C88.09308105 210.68510742 88.9649707 211.24423828 89.86328125 211.8203125 C90.62680908 212.32449707 91.39033691 212.82868164 92.17700195 213.34814453 C95.08329766 214.588005 96.46118263 214.28333868 99.4375 213.3125 C101.54670115 212.26611825 101.54670115 212.26611825 103.5546875 210.90625 C104.31998779 210.41350586 105.08528809 209.92076172 105.8737793 209.41308594 C106.67855713 208.88489258 107.48333496 208.35669922 108.3125 207.8125 C110.00299086 206.72253729 111.69441043 205.63401373 113.38671875 204.546875 C114.23024902 204.00353516 115.0737793 203.46019531 115.94287109 202.90039062 C119.63013589 200.55335889 123.36971613 198.29859668 127.125 196.0625 C127.76614746 195.68029297 128.40729492 195.29808594 129.06787109 194.90429688 C130.52326247 194.038426 131.98018349 193.17512681 133.4375 192.3125 C131.82974969 183.52869343 122.95146314 176.48858708 117.06640625 170.16015625 C114.95293607 167.87082525 112.89854254 165.55547531 110.875 163.1875 C103.46942413 154.69131675 95.34378853 147.2050928 86.4375 140.3125 C85.8899707 139.88855957 85.34244141 139.46461914 84.77832031 139.02783203 C74.79084363 131.35356935 64.32726349 124.63143507 53.4375 118.3125 C52.79844727 117.93996094 52.15939453 117.56742187 51.50097656 117.18359375 C9.75446145 93.12552763 -36.44563811 91.10614483 -83.41558838 90.76989746 C-97.32981168 90.66771376 -111.24366563 90.52952838 -125.15702057 90.34352875 C-127.52480146 90.31298628 -129.89260226 90.28654326 -132.26043701 90.26055908 C-135.89089453 90.21836053 -139.52040622 90.15509728 -143.15022087 90.07505989 C-145.08207904 90.03655667 -147.01428013 90.0166379 -148.94642639 89.99742126 C-157.04880042 89.78754951 -163.05003867 88.91739452 -168.9375 82.875 C-172.38938519 77.43164258 -173.53239283 72.71587845 -172.5625 66.3125 C-170.72066279 60.72154239 -167.80958696 57.19161439 -162.95703125 53.91796875 C-162.06725586 53.3156543 -161.17748047 52.71333984 -160.26074219 52.09277344 C-159.37032227 51.5052832 -158.47990234 50.91779297 -157.5625 50.3125 C-156.7880957 49.79977539 -156.01369141 49.28705078 -155.21582031 48.75878906 C-122.58174348 27.50250115 -87.81930401 12.27804691 -49.625 4.5 C-48.66803223 4.3050293 -47.71106445 4.11005859 -46.72509766 3.90917969 C-31.13694441 0.90952488 -15.84283021 -0.06690551 0 0 Z " fill="#183F56" transform="translate(311.5625,0.6875)"/>
<path d="M0 0 C0.93560257 -0.00622879 1.87120514 -0.01245758 2.8351593 -0.01887512 C4.35377815 -0.0050605 4.35377815 -0.0050605 5.90307617 0.0090332 C7.47831306 0.00828545 7.47831306 0.00828545 9.08537292 0.00752258 C11.31556074 0.00986612 13.54575106 0.01961097 15.77587891 0.03613281 C19.14469908 0.05945893 22.51271284 0.05672869 25.8815918 0.05004883 C51.35649177 0.08295021 72.53515561 2.77820358 91.38354492 21.37231445 C104.34693096 34.54106106 110.49092279 50.98808609 110.58666992 69.36450195 C110.59237 70.22810333 110.59807007 71.09170471 110.60394287 71.98147583 C110.61336284 73.80868316 110.61991487 75.63590724 110.6237793 77.46313477 C110.63339305 80.20401442 110.66440624 82.94411336 110.69604492 85.68481445 C110.84129499 109.89727426 105.84623857 133.2446122 88.59838867 151.2590332 C82.52513836 157.05379232 76.01654129 160.9251548 68.38354492 164.37231445 C67.74932617 164.67137695 67.11510742 164.97043945 66.46166992 165.27856445 C53.30291273 170.90196496 37.68459857 169.71456434 23.70263672 169.68798828 C20.16563218 169.68478693 16.62943335 169.70850276 13.0925293 169.73364258 C10.84187931 169.73591197 8.59122707 169.73662075 6.34057617 169.7355957 C4.75633598 169.74941032 4.75633598 169.74941032 3.14009094 169.76350403 C2.16444687 169.75727524 1.1888028 169.75104645 0.18359375 169.74462891 C-1.10208748 169.74557304 -1.10208748 169.74557304 -2.41374207 169.74653625 C-5.23244736 169.26766272 -5.92587284 168.67090115 -7.61645508 166.37231445 C-7.9939785 163.46591949 -7.9939785 163.46591949 -7.99740601 159.84362793 C-8.00208598 159.17756232 -8.00676595 158.51149671 -8.01158774 157.82524729 C-8.02357351 155.5887819 -8.01406703 153.35292524 -8.00463867 151.11645508 C-8.0087028 149.51498557 -8.01404379 147.91351887 -8.02056885 146.3120575 C-8.0342672 141.95879708 -8.02893346 137.6057495 -8.01943159 133.25248528 C-8.01184801 128.70148002 -8.01887697 124.15049326 -8.02359009 119.5994873 C-8.02905144 111.95618409 -8.02184608 104.31296777 -8.00756836 96.66967773 C-7.9912411 87.8269684 -7.99652934 78.98446656 -8.01304758 70.14176226 C-8.02665164 62.55613695 -8.0285874 54.97057419 -8.02073157 47.38494062 C-8.0160491 42.85150723 -8.01544592 38.31817143 -8.02534103 33.78474426 C-8.03399274 29.52312801 -8.02802185 25.26177986 -8.01065826 21.00019264 C-8.00668378 19.43404905 -8.00784385 17.86788299 -8.01444626 16.30174828 C-8.02261429 14.16785891 -8.01239895 12.03483484 -7.99740601 9.90100098 C-7.99627493 8.70564476 -7.99514385 7.51028854 -7.9939785 6.27870941 C-7.61645508 3.37231445 -7.61645508 3.37231445 -6.22556973 1.48766041 C-4.06061526 -0.01296182 -2.62397528 -0.00201024 0 0 Z " fill="#EFDDC4" transform="translate(305.616455078125,289.627685546875)"/>
<path d="M0 0 C1.41650373 0.20814317 2.83315889 0.41525972 4.25 0.62109375 C22.85497769 3.64065162 40.7478902 10.59278511 58 18 C58.72493652 18.31018066 59.44987305 18.62036133 60.19677734 18.93994141 C88.91516964 31.40413232 115.46191687 50.35363134 138 72 C138.50805176 72.4861377 139.01610352 72.97227539 139.53955078 73.47314453 C145.7797967 79.47872122 151.54439467 85.64465249 156.93359375 92.44140625 C158.81208184 94.7673225 160.77200724 96.94204984 162.8125 99.125 C171.92248183 109.27351975 179.46802772 121.06305066 186 133 C190.30402145 132.42560591 193.15975717 130.86521206 196.8125 128.5625 C203.47103111 124.57555131 209.08166233 122.42060944 217 123 C218.56495971 124.56495971 218.1647512 126.06765086 218.17895508 128.24316406 C218.11028834 134.62952417 217.14543679 140.81379521 216.13671875 147.109375 C215.94406937 148.35261536 215.75141998 149.59585571 215.55293274 150.87677002 C215.04153858 154.17021383 214.52393035 157.46254637 214.00280762 160.75445557 C213.0791208 166.60035967 212.17212503 172.44889174 211.26171875 178.296875 C210.96646805 180.18037659 210.96646805 180.18037659 210.66525269 182.10192871 C209.31366007 190.78167314 208.07380815 199.47091405 207.00382996 208.19012451 C206.43134519 212.65880632 205.76630342 216.81253214 204 221 C200.90495671 222.54752164 198.43004089 222.24420507 195 222 C192.44875765 220.98104503 190.21504026 219.94866286 187.82421875 218.64453125 C186.40804605 217.90444875 184.99186738 217.16437769 183.57568359 216.42431641 C182.83203552 216.02907776 182.08838745 215.63383911 181.32220459 215.22662354 C178.14087361 213.54619647 174.93309821 211.91971693 171.72511292 210.29090881 C167.41498335 208.10135516 163.11433885 205.89328565 158.8125 203.6875 C157.9148996 203.2273349 157.01729919 202.7671698 156.09249878 202.2930603 C150.05958266 199.199421 144.02880743 196.10163829 138 193 C137.32783447 192.65424927 136.65566895 192.30849854 135.96313477 191.95227051 C132.3255363 190.08009632 128.69216496 188.20000524 125.0625 186.3125 C124.23661377 185.88606201 123.41072754 185.45962402 122.55981445 185.02026367 C117.23568913 182.23568913 117.23568913 182.23568913 115 180 C114.65625 177.546875 114.65625 177.546875 115 175 C116.40625 173.515625 116.40625 173.515625 118.5 172.25 C119.30308594 171.75757813 120.10617187 171.26515625 120.93359375 170.7578125 C122.45146484 169.88769531 122.45146484 169.88769531 124 169 C124.98830811 168.43297363 124.98830811 168.43297363 125.99658203 167.85449219 C130.64306418 165.19726227 135.31422869 162.58723569 140 160 C139.55747513 153.487509 137.86498734 148.88630631 134.75 143.1875 C134.31252441 142.37289307 133.87504883 141.55828613 133.42431641 140.71899414 C126.27586464 127.72146935 117.68429374 115.24105912 108 104 C107.33097656 103.22140625 106.66195312 102.4428125 105.97265625 101.640625 C96.466953 90.84572149 86.36463335 80.83030417 75 72 C74.02933594 71.22398438 73.05867187 70.44796875 72.05859375 69.6484375 C47.87987628 50.58386678 21.37268917 36.34134108 -8 27 C-8.78036621 26.74428223 -9.56073242 26.48856445 -10.36474609 26.22509766 C-34.21969431 18.4980409 -59.47381074 15.77500916 -84.4375 15.75 C-85.62829163 15.74799088 -85.62829163 15.74799088 -86.84313965 15.74594116 C-99.45986854 15.75054488 -111.59921445 16.5432406 -124 19 C-126.32420252 19.44607365 -128.64870136 19.89050492 -130.97363281 20.33276367 C-132.96776045 20.71950495 -134.95682699 21.13209888 -136.9453125 21.546875 C-140 22 -140 22 -143 21 C-99.92780169 -2.81639201 -48.01520762 -7.89174002 0 0 Z " fill="#EFDDC4" transform="translate(349,46)"/>
<path d="M0 0 C1.53903488 -0.01418472 1.53903488 -0.01418472 3.10916138 -0.02865601 C4.22153168 -0.02258331 5.33390198 -0.01651062 6.47998047 -0.01025391 C8.21101517 -0.01455917 8.21101517 -0.01455917 9.97702026 -0.01895142 C12.42999764 -0.02099637 14.88299116 -0.01543654 17.3359375 -0.00292969 C21.03407965 0.01291332 24.73109433 -0.00265752 28.42919922 -0.02197266 C50.47432051 -0.04340455 71.09585186 0.77215438 87.85498047 17.00927734 C91.25910745 20.83420969 93.72693173 24.79948203 95.97216797 29.38818359 C96.38466797 30.14873047 96.79716797 30.90927734 97.22216797 31.69287109 C102.30930109 42.75032017 101.61340262 58.08284924 98.34716797 69.63818359 C93.53673397 82.51070384 85.39165238 91.85618324 73.97216797 99.38818359 C76.28779709 107.17561961 79.70224871 114.11215517 83.40966797 121.32568359 C84.66517545 123.80208765 85.91325981 126.28218905 87.15966797 128.76318359 C87.47540268 129.39131454 87.79113739 130.0194455 88.11643982 130.66661072 C91.46612829 137.34671294 94.72251273 144.06637669 97.90966797 150.82568359 C98.4355249 151.91421631 98.96138184 153.00274902 99.50317383 154.12426758 C99.97634033 155.1381958 100.44950684 156.15212402 100.93701172 157.19677734 C101.35587646 158.08163818 101.77474121 158.96649902 102.20629883 159.87817383 C103.1007386 162.80955263 102.86685044 164.48497856 101.97216797 167.38818359 C100.97216797 168.38818359 100.97216797 168.38818359 97.8293457 168.50170898 C96.43814099 168.50154992 95.04693036 168.49585866 93.65576172 168.48583984 C92.55917992 168.48371742 92.55917992 168.48371742 91.44044495 168.48155212 C89.09681165 168.47593768 86.75327258 168.46338281 84.40966797 168.45068359 C82.82438289 168.44567045 81.23909631 168.44110722 79.65380859 168.43701172 C75.75989187 168.42596356 71.86604591 168.40868931 67.97216797 168.38818359 C56.78667811 147.97199677 47.30457326 126.70328449 37.97216797 105.38818359 C36.49309905 105.36129143 35.01389314 105.34183738 33.53466797 105.32568359 C32.71095703 105.31408203 31.88724609 105.30248047 31.03857422 105.29052734 C28.98052859 105.15551011 28.98052859 105.15551011 27.97216797 106.38818359 C27.8645188 108.21307856 27.82590529 110.04208578 27.81445312 111.87011719 C27.79905991 113.62731583 27.79905991 113.62731583 27.78335571 115.42001343 C27.77605438 116.69599396 27.76875305 117.97197449 27.76123047 119.28662109 C27.74035294 121.2742023 27.71945817 123.26178351 27.69753075 125.24935341 C27.64423632 130.16925809 27.6001369 135.08917067 27.57080078 140.00927734 C27.55392537 142.76492473 27.52925509 145.52028975 27.49594116 148.27578735 C27.46484339 150.87656212 27.44552503 153.47750852 27.43887329 156.07846069 C27.42230682 157.25623077 27.40574036 158.43400085 27.38867188 159.64746094 C27.38058502 160.68591156 27.37249817 161.72436218 27.36416626 162.79428101 C26.97216797 165.38818359 26.97216797 165.38818359 25.63082886 167.22271729 C23.00126778 169.07039143 20.61008593 168.77753418 17.44091797 168.78662109 C16.15572266 168.79048828 14.87052734 168.79435547 13.54638672 168.79833984 C12.87784668 168.79205566 12.20930664 168.78577148 11.52050781 168.77929688 C9.47897467 168.76323714 7.43942089 168.77915031 5.39794922 168.79833984 C4.11275391 168.79447266 2.82755859 168.79060547 1.50341797 168.78662109 C0.32328125 168.7832373 -0.85685547 168.77985352 -2.07275391 168.77636719 C-5.02783203 168.38818359 -5.02783203 168.38818359 -6.68871498 167.26959229 C-8.66756498 164.48938306 -8.40555538 162.28742361 -8.40878296 158.89746094 C-8.41346293 158.23547888 -8.4181429 157.57349682 -8.42296469 156.8914547 C-8.43495 154.66880757 -8.42544418 152.44677301 -8.41601562 150.22412109 C-8.42007978 148.63250366 -8.42542077 147.04088904 -8.4319458 145.44927979 C-8.44564391 141.12287758 -8.44031052 136.79668955 -8.43080854 132.47028351 C-8.42322484 127.94730543 -8.43025396 123.42434597 -8.43496704 118.90136719 C-8.44042836 111.30514221 -8.43322313 103.70900468 -8.41894531 96.11279297 C-8.40261806 87.32461477 -8.40790631 78.53664535 -8.42442453 69.74847221 C-8.4380287 62.20955554 -8.4399643 54.67070179 -8.43210852 47.13177681 C-8.42742611 42.62628888 -8.42682271 38.12089915 -8.43671799 33.61541748 C-8.44536985 29.38006545 -8.43939852 25.14498316 -8.42203522 20.90966034 C-8.41806082 19.35319212 -8.41922067 17.79670129 -8.42582321 16.240242 C-8.43399159 14.11948794 -8.42377552 11.99960446 -8.40878296 9.87890625 C-8.40765188 8.69092438 -8.40652081 7.5029425 -8.40535545 6.27896118 C-8.02783203 3.38818359 -8.02783203 3.38818359 -6.64754868 1.50632286 C-4.37823429 -0.06025332 -2.74468297 0.0072678 0 0 Z " fill="#F0DDC4" transform="translate(118.02783203125,290.61181640625)"/>
<path d="M0 0 C0.98533974 -0.00074776 0.98533974 -0.00074776 1.99058533 -0.00151062 C3.37664827 0.00082637 4.76271574 0.010533 6.14868164 0.02709961 C8.27333359 0.05073664 10.39673397 0.04765317 12.52148438 0.04101562 C22.9356846 0.0841221 22.9356846 0.0841221 25.21484375 2.36328125 C25.46931934 5.14662838 25.46931934 5.14662838 25.47554016 8.77171326 C25.48127848 9.76953004 25.48127848 9.76953004 25.48713273 10.78750473 C25.49749011 13.0269542 25.4934655 15.26614859 25.48950195 17.50561523 C25.49384693 19.10693602 25.49902936 20.70825472 25.50498962 22.30957031 C25.51841415 26.66697567 25.51895446 31.02429447 25.51642632 35.38171649 C25.51535892 39.01509112 25.52023406 42.64844807 25.52503175 46.28181893 C25.53613893 54.85138549 25.53655758 63.42090823 25.53051758 71.99047852 C25.52447593 80.84054263 25.53679085 89.69044784 25.55808765 98.54048485 C25.57568249 106.13032849 25.58170835 113.72012145 25.5784499 121.30998474 C25.57663347 125.8467958 25.57930887 130.38349352 25.59316444 134.92028618 C25.6057038 139.18597812 25.60383584 143.45142172 25.59075356 147.71710968 C25.58837967 149.28487035 25.59115137 150.85264829 25.59937668 152.42038918 C25.60977794 154.5565062 25.60179807 156.69177965 25.58906555 158.8278656 C25.58923329 160.02452064 25.58940104 161.22117567 25.58957386 162.45409298 C25.21484375 165.36328125 25.21484375 165.36328125 23.8828764 167.24847507 C21.17509019 169.05818593 18.63820966 168.73434864 15.4296875 168.7265625 C14.44434776 168.72731026 14.44434776 168.72731026 13.43910217 168.72807312 C12.05303923 168.72573613 10.66697176 168.7160295 9.28100586 168.69946289 C7.15635391 168.67582586 5.03295353 168.67890933 2.90820312 168.68554688 C-7.5059971 168.6424404 -7.5059971 168.6424404 -9.78515625 166.36328125 C-10.03963184 163.57993412 -10.03963184 163.57993412 -10.04585266 159.95484924 C-10.04967821 159.28963806 -10.05350376 158.62442687 -10.05744523 157.93905777 C-10.06780261 155.6996083 -10.063778 153.46041391 -10.05981445 151.22094727 C-10.06415943 149.61962648 -10.06934186 148.01830778 -10.07530212 146.41699219 C-10.08872665 142.05958683 -10.08926696 137.70226803 -10.08673882 133.34484601 C-10.08567142 129.71147138 -10.09054656 126.07811443 -10.09534425 122.44474357 C-10.10645143 113.87517701 -10.10687008 105.30565427 -10.10083008 96.73608398 C-10.09478843 87.88601987 -10.10710335 79.03611466 -10.12840015 70.18607765 C-10.14599499 62.59623401 -10.15202085 55.00644105 -10.1487624 47.41657776 C-10.14694597 42.8797667 -10.14962137 38.34306898 -10.16347694 33.80627632 C-10.1760163 29.54058438 -10.17414834 25.27514078 -10.16106606 21.00945282 C-10.15869217 19.44169215 -10.16146387 17.87391421 -10.16968918 16.30617332 C-10.18009044 14.1700563 -10.17211057 12.03478285 -10.15937805 9.8986969 C-10.15962966 8.10371435 -10.15962966 8.10371435 -10.15988636 6.27246952 C-9.78515625 3.36328125 -9.78515625 3.36328125 -8.4531889 1.47808743 C-5.74540269 -0.33162343 -3.20852216 -0.00778614 0 0 Z " fill="#F0DEC4" transform="translate(247.78515625,290.63671875)"/>
<path d="M0 0 C12.37704109 0.0303877 21.11756808 2.59313816 30.28710938 11.38061523 C42.80870012 25.02020515 39.9997003 48.52906856 39.28710938 65.38061523 C38.56845286 78.10506291 36.00694303 90.81705678 26.59960938 100.00561523 C18.46749686 106.36010516 8.43701481 108.50457011 -1.66992188 108.74389648 C-4.62439542 108.21853121 -5.65854859 107.63455271 -7.71289062 105.38061523 C-8.33396562 102.1369655 -8.2377235 98.90988114 -8.19873047 95.61669922 C-8.20252716 94.61485596 -8.20632385 93.6130127 -8.2102356 92.58081055 C-8.2176576 89.26246034 -8.1962364 85.94498164 -8.17382812 82.62670898 C-8.17144478 80.32650353 -8.17053815 78.02629611 -8.17105103 75.72608948 C-8.16792027 70.90320671 -8.15133229 66.08062064 -8.12451172 61.2578125 C-8.09051259 55.06447332 -8.0828835 48.87146016 -8.08440208 42.6780386 C-8.08385922 37.92809414 -8.07290576 33.17822148 -8.0583992 28.42830086 C-8.05201891 26.14405931 -8.04808944 23.8598096 -8.04661179 21.57555962 C-8.04229294 18.38860988 -8.02482297 15.20201144 -8.00341797 12.01513672 C-8.00432434 11.06391434 -8.00523071 10.11269196 -8.00616455 9.13264465 C-7.99763458 8.26757294 -7.98910461 7.40250122 -7.98031616 6.51121521 C-7.97696447 5.75739783 -7.97361279 5.00358046 -7.97015953 4.22692013 C-7.33099194 -0.36010237 -3.84403162 0.07986578 0 0 Z " fill="#173D55" transform="translate(340.712890625,320.619384765625)"/>
<path d="M0 0 C14.84088518 0.46831955 29.63101287 1.41554767 44.4375 2.5 C45.7960762 2.59856796 45.7960762 2.59856796 47.18209839 2.6991272 C49.80780653 2.89044682 52.43323962 3.0851375 55.05859375 3.28125 C55.8412561 3.33854782 56.62391846 3.39584564 57.43029785 3.45487976 C61.04339683 3.72963375 64.63129925 4.06194835 68.22460938 4.53173828 C71.29907163 4.91306385 74.25583487 5.14592187 77.34765625 5.2109375 C78.75047852 5.25347656 78.75047852 5.25347656 80.18164062 5.296875 C82.10592148 5.34905889 84.03043377 5.3932999 85.95507812 5.4296875 C92.97598006 5.66226396 98.14844523 6.25918522 103.4140625 11.3203125 C104.14367187 12.24585938 104.87328125 13.17140625 105.625 14.125 C106.03975586 14.64505615 106.45451172 15.1651123 106.88183594 15.70092773 C108.27115304 17.45492781 109.63637054 19.22597142 111 21 C112.01296634 22.30082368 113.02598903 23.60160349 114.0390625 24.90234375 C117.39777041 29.23949155 120.70615308 33.61346041 124 38 C124.88341064 39.1758667 124.88341064 39.1758667 125.78466797 40.37548828 C133.52409719 50.70659004 141.011216 61.14562485 148 72 C148.64195312 72.969375 149.28390625 73.93875 149.9453125 74.9375 C154.85179413 82.60530385 154.85179413 82.60530385 154 88 C146.76746873 88.95900967 142.267032 85.71368707 136.25 82 C135.20287842 81.37134033 134.15575684 80.74268066 133.0769043 80.0949707 C130.84572006 78.75493944 128.61818376 77.40881845 126.39404297 76.05712891 C120.89307618 72.72299381 115.35006452 69.46034314 109.8125 66.1875 C107.54416842 64.84131839 105.27594066 63.49496182 103.0078125 62.1484375 C95.74971206 57.84360435 88.47004117 53.57581624 81.1875 49.3125 C71.91201664 43.88239452 62.64595569 38.43705043 53.39868164 32.95898438 C48.19477469 29.87901372 42.98083928 26.81691928 37.7578125 23.76953125 C15.1835791 10.59456094 15.1835791 10.59456094 6.1875 5 C5.53604004 4.59692627 4.88458008 4.19385254 4.21337891 3.77856445 C2.78970154 2.88219728 1.39098339 1.94630681 0 1 C0 0.67 0 0.34 0 0 Z " fill="#EFDDC4" transform="translate(59,507)"/>
<path d="M0 0 C0 0.66 0 1.32 0 2 C-1.55932617 3.15063477 -1.55932617 3.15063477 -3.79296875 4.44140625 C-4.63657959 4.93415039 -5.48019043 5.42689453 -6.34936523 5.93457031 C-7.75424194 6.74039551 -7.75424194 6.74039551 -9.1875 7.5625 C-10.64168335 8.40893066 -10.64168335 8.40893066 -12.12524414 9.27246094 C-14.25959677 10.51469272 -16.39567815 11.75395754 -18.53320312 12.99072266 C-24.05042785 16.18431519 -29.54624394 19.41457115 -35.04483032 22.6401062 C-36.94503988 23.75442152 -38.84586443 24.86768132 -40.74682617 25.98071289 C-47.81323913 30.11961273 -54.85316279 34.29749669 -61.86328125 38.53125 C-66.53230217 41.33290491 -71.24044604 44.06777557 -75.94262695 46.81323242 C-87.12564764 53.3427925 -98.25886686 59.94096886 -109.3125 66.6875 C-118.37625726 72.21557379 -127.46807766 77.69002408 -136.625 83.0625 C-137.64505127 83.66473389 -138.66510254 84.26696777 -139.71606445 84.88745117 C-140.64765381 85.43119385 -141.57924316 85.97493652 -142.5390625 86.53515625 C-143.35584473 87.013479 -144.17262695 87.49180176 -145.01416016 87.98461914 C-147 89 -147 89 -149 89 C-148.45177977 84.79447496 -147.11018394 82.36273775 -144.5625 79 C-143.840625 78.03964844 -143.11875 77.07929687 -142.375 76.08984375 C-141.59125 75.07019531 -140.8075 74.05054688 -140 73 C-139.18748378 71.9388145 -138.37498399 70.87761643 -137.5625 69.81640625 C-135.87817306 67.62151667 -134.188329 65.4309835 -132.49609375 63.2421875 C-129.02658227 58.74689581 -125.63107323 54.19666711 -122.23339844 49.64697266 C-120.90217917 47.86937859 -119.56484456 46.096501 -118.2265625 44.32421875 C-113.93813497 38.63715884 -109.66240857 32.94684356 -105.51953125 27.15234375 C-104.65376465 25.94215576 -104.65376465 25.94215576 -103.77050781 24.70751953 C-102.66004067 23.15038936 -101.55368503 21.59031599 -100.45214844 20.02685547 C-99.00102343 17.99077729 -97.51065603 15.99211467 -96 14 C-94.94619141 12.56720703 -94.94619141 12.56720703 -93.87109375 11.10546875 C-86.77973693 5.90514041 -75.30492283 6.58522738 -66.75390625 6.03515625 C-64.42772935 5.873119 -62.10155764 5.7110072 -59.77539062 5.54882812 C-56.18252801 5.30530619 -52.58951365 5.06429573 -48.99633789 4.82543945 C-34.53522828 3.85538363 -20.25193518 2.59907831 -5.94444275 0.24266052 C-4 0 -4 0 0 0 Z " fill="#EFDDC4" transform="translate(406,505)"/>
<path d="M0 0 C6.9517098 0.10754026 11.57686579 2.5860894 17.4375 6.125 C18.34218018 6.65633545 19.24686035 7.1876709 20.17895508 7.73510742 C23.12905168 9.47422541 26.06562167 11.23450464 29 13 C30.48209961 13.88824463 30.48209961 13.88824463 31.99414062 14.79443359 C36.11405742 17.26385366 40.23211967 19.73627285 44.34521484 22.21704102 C54.02034236 28.04415687 63.79658411 33.68697553 73.58984375 39.3125 C82.76202211 44.58147623 91.89093612 49.92438615 101.0234375 55.26171875 C104.03513124 57.02051627 107.04854184 58.77633606 110.0625 60.53125 C122.60550601 67.83565307 135.13823415 75.15707409 147.61181641 82.57958984 C149.14406768 83.49092065 150.67749585 84.40027729 152.21240234 85.30712891 C154.10449209 86.42651391 155.99075042 87.55498389 157.875 88.6875 C158.88304687 89.28949219 159.89109375 89.89148438 160.9296875 90.51171875 C161.61289062 91.00285156 162.29609375 91.49398437 163 92 C163 92.66 163 93.32 163 94 C157.28279787 94.23110235 152.67246382 93.59882362 147.2421875 91.7265625 C145.73286001 91.23102466 144.2234998 90.73558643 142.71411133 90.24023438 C141.9263028 89.97686279 141.13849426 89.71349121 140.32681274 89.44213867 C125.94692424 84.64961811 111.47647655 80.33261755 96.8125 76.5 C96.05136902 76.29916809 95.29023804 76.09833618 94.50604248 75.89141846 C87.66077491 74.09057939 80.82424792 72.3358939 73.87646484 70.97265625 C73.02267746 70.80358765 72.16889008 70.63451904 71.28923035 70.46032715 C69.65405826 70.14230161 68.01649791 69.83622223 66.37641907 69.54455566 C58.94485992 68.107416 54.3107606 64.56797311 48.99609375 59.2265625 C48.09052734 58.3190625 47.18496094 57.4115625 46.25195312 56.4765625 C45.55791382 55.77321777 45.55791382 55.77321777 44.84985352 55.05566406 C43.44278083 53.63034929 42.02706195 52.21358721 40.61132812 50.796875 C33.08944884 43.22674418 33.08944884 43.22674418 30.34765625 39.7734375 C27.87669554 36.8543325 25.22721804 34.51835707 22.328125 32.03955078 C18.07311971 28.31195911 14.02867458 24.36784104 9.99707031 20.40209961 C8.99079062 19.41764562 7.97828372 18.43952065 6.95996094 17.4675293 C5.46901388 16.04342272 3.99866921 14.60063462 2.53125 13.15234375 C1.22510742 11.8837854 1.22510742 11.8837854 -0.10742188 10.58959961 C-2.40616906 7.44424211 -2.55548698 5.81432181 -2 2 C-1.34 1.34 -0.68 0.68 0 0 Z " fill="#EFDEC5" transform="translate(245,162)"/>
<path d="M0 0 C-1.6029006 3.46884129 -3.63061687 6.49183202 -5.8125 9.625 C-6.20139404 10.18348633 -6.59028809 10.74197266 -6.9909668 11.31738281 C-10.92379605 16.93941447 -14.95099382 22.49323935 -18.97851562 28.04760742 C-22.2757019 32.59851136 -25.5462348 37.16636048 -28.78051758 41.76220703 C-29.79254368 43.19920345 -30.80794821 44.63382718 -31.8269043 46.06591797 C-34.01122957 49.13961465 -36.15980268 52.21518665 -38.17578125 55.40234375 C-41.77630786 60.89332721 -44.29993828 64.10213952 -50.8359375 65.484375 C-51.88007813 65.65453125 -52.92421875 65.8246875 -54 66 C-56.96214263 66.54288643 -59.91870148 67.11372347 -62.875 67.6875 C-63.72433105 67.85024414 -64.57366211 68.01298828 -65.44873047 68.18066406 C-80.53440948 71.17875573 -95.21756706 75.9588645 -109.93359375 80.37890625 C-110.59385559 80.57719528 -111.25411743 80.77548431 -111.93438721 80.9797821 C-115.1036319 81.9324967 -118.27131238 82.88978233 -121.43701172 83.85424805 C-124.95301435 84.92065667 -128.4743777 85.96585597 -132 87 C-132.65272888 87.19440674 -133.30545776 87.38881348 -133.97796631 87.58911133 C-135.98554827 88.18244014 -137.99762527 88.75733796 -140.01171875 89.328125 C-141.20627686 89.67262695 -142.40083496 90.01712891 -143.6315918 90.37207031 C-147.12566682 91.02342647 -149.56428818 90.81025073 -153 90 C-148.72393247 86.35552727 -144.12892236 83.54132224 -139.3125 80.6875 C-138.44310791 80.16897461 -137.57371582 79.65044922 -136.67797852 79.11621094 C-128.54379565 74.28357037 -120.34248721 69.56825296 -112.13891602 64.85473633 C-100.74721781 58.30066552 -89.44994377 51.59189041 -78.15429688 44.87402344 C-73.44133694 42.07397077 -68.72093749 39.28657427 -64 36.5 C-57.01733648 32.37749601 -50.04079967 28.24482901 -43.06811523 24.10546875 C-37.38230269 20.73096293 -31.69150375 17.3648956 -26 14 C-25.13402191 13.48744659 -25.13402191 13.48744659 -24.25054932 12.96453857 C-20.31678521 10.63633108 -16.37827455 8.31633086 -12.4375 6 C-11.41414551 5.39422119 -10.39079102 4.78844238 -9.33642578 4.16430664 C-8.39911621 3.61508545 -7.46180664 3.06586426 -6.49609375 2.5 C-5.67294678 2.0153125 -4.8497998 1.530625 -4.00170898 1.03125 C-2 0 -2 0 0 0 Z " fill="#EFDEC5" transform="translate(207,162)"/>
<path d="M0 0 C0.66 0 1.32 0 2 0 C2.52471617 1.83650659 3.04943131 3.67301346 3.57414246 5.50952148 C4.04915286 7.17204235 4.52417989 8.83455845 4.9992218 10.49707031 C6.33555723 15.17396307 7.67158799 19.85094252 9.00708008 24.52807617 C11.42337595 32.9893241 13.84033545 41.45035921 16.27038574 49.90766907 C17.19324434 53.11960852 18.11475389 56.33193433 19.03619385 59.54428101 C19.46837749 61.04939063 19.90127286 62.55429607 20.3348999 64.05899048 C20.93729382 66.14949538 21.53725912 68.24068338 22.13671875 70.33203125 C22.47405029 71.50483643 22.81138184 72.6776416 23.15893555 73.88598633 C25.99516511 84.38703368 26.13468426 93.18256218 21.99609375 103.23046875 C21.68582748 104.00494354 21.37556122 104.77941833 21.05589294 105.57736206 C17.38681544 114.66156447 13.48199647 123.64679476 9.5625 132.625 C8.82325218 134.32538369 8.0843186 136.02590404 7.34570312 137.7265625 C5.56739832 141.81928301 3.7849297 145.91016468 2 150 C1.34 150 0.68 150 0 150 C0 100.5 0 51 0 0 Z " fill="#F0DFC6" transform="translate(34,308)"/>
<path d="M0 0 C0.85787109 0.00322266 1.71574219 0.00644531 2.59960938 0.00976562 C3.43814453 -0.00634766 4.27667969 -0.02246094 5.140625 -0.0390625 C11.93473613 -0.04436626 16.6089258 1.17098521 22.09960938 5.38476562 C26.36172509 10.79880451 29.14658816 17.26338565 28.73632812 24.25195312 C27.70366315 30.84607884 25.88233961 37.24795022 21.41210938 42.32226562 C15.52127643 46.41076614 10.04325818 46.89273821 3.03710938 46.69726562 C2.13605469 46.69597656 1.235 46.6946875 0.30664062 46.69335938 C-6.30602322 46.60413303 -6.30602322 46.60413303 -8.58789062 44.32226562 C-8.84185791 42.50073242 -8.84185791 42.50073242 -8.84667969 40.27148438 C-8.85298401 39.43721924 -8.85928833 38.6029541 -8.86578369 37.7434082 C-8.86173523 36.84130615 -8.85768677 35.9392041 -8.85351562 35.00976562 C-8.85542908 34.08510498 -8.85734253 33.16044434 -8.85931396 32.20776367 C-8.86067629 30.25081104 -8.85697658 28.29384938 -8.84863281 26.33691406 C-8.83793397 23.33442973 -8.84852653 20.33254376 -8.86132812 17.33007812 C-8.86000654 15.4316393 -8.85744416 13.53320085 -8.85351562 11.63476562 C-8.85756409 10.73266357 -8.86161255 9.83056152 -8.86578369 8.90112305 C-8.85947937 8.06685791 -8.85317505 7.23259277 -8.84667969 6.37304688 C-8.8450885 5.63739502 -8.84349731 4.90174316 -8.84185791 4.14379883 C-8.1522019 -0.8026309 -3.89297343 0.03369214 0 0 Z " fill="#173D55" transform="translate(153.587890625,320.677734375)"/>
<path d="M0 0 C11.88 0 23.76 0 36 0 C36.495 1.485 36.495 1.485 37 3 C11.0298471 3.41277905 11.0298471 3.41277905 0 1 C0 0.67 0 0.34 0 0 Z " fill="#22445B" transform="translate(246,61)"/>
<path d="M0 0 C0 0.66 0 1.32 0 2 C-2.07828493 3.50312477 -4.12791551 4.85724824 -6.3125 6.1875 C-6.90740234 6.56841797 -7.50230469 6.94933594 -8.11523438 7.34179688 C-9.69380094 8.31362948 -11.34486531 9.16521849 -13 10 C-13.99 9.67 -14.98 9.34 -16 9 C-11.25 6 -11.25 6 -9 6 C-9 5.34 -9 4.68 -9 4 C-10.051875 4.185625 -11.10375 4.37125 -12.1875 4.5625 C-15.57119882 4.95079331 -17.76425888 4.88247485 -21 4 C-21 3.67 -21 3.34 -21 3 C-18.25071558 2.49576443 -15.50068857 1.99646574 -12.75 1.5 C-11.97269531 1.35691406 -11.19539063 1.21382813 -10.39453125 1.06640625 C-9.64042969 0.93105469 -8.88632812 0.79570312 -8.109375 0.65625 C-7.07248535 0.46772461 -7.07248535 0.46772461 -6.01464844 0.27539062 C-4 0 -4 0 0 0 Z " fill="#F0E7CF" transform="translate(406,505)"/>
<path d="M0 0 C7.73708326 -0.12152487 15.307359 0.15199233 23 1 C23 1.33 23 1.66 23 2 C16.43300475 2.84843174 10.05449407 3.12561146 3.4375 3.0625 C2.52419922 3.05798828 1.61089844 3.05347656 0.66992188 3.04882812 C-1.55345738 3.0371874 -3.77669121 3.02083851 -6 3 C-6 2.67 -6 2.34 -6 2 C-4.02 2 -2.04 2 0 2 C0 1.34 0 0.68 0 0 Z " fill="#354255" transform="translate(321,1)"/>
<path d="M0 0 C-0.33 1.32 -0.66 2.64 -1 4 C-0.34 4.33 0.32 4.66 1 5 C-5.435 5.495 -5.435 5.495 -12 6 C-12 5.67 -12 5.34 -12 5 C-10.35 5 -8.7 5 -7 5 C-7.33 3.35 -7.66 1.7 -8 0 C-5.13822943 -1.43088528 -3.06624227 -0.59991697 0 0 Z " fill="#F4E8CF" transform="translate(234,58)"/>
<path d="M0 0 C0.66 0.33 1.32 0.66 2 1 C-0.1217363 2.33878572 -2.24705188 3.67115476 -4.375 5 C-4.97828125 5.3815625 -5.5815625 5.763125 -6.203125 6.15625 C-10.7734375 9 -10.7734375 9 -13 9 C-12.67 7.35 -12.34 5.7 -12 4 C-11.01 4 -10.02 4 -9 4 C-6.30199062 3.55033177 -4.73967111 2.83884402 -2.375 1.375 C-1.59125 0.92125 -0.8075 0.4675 0 0 Z " fill="#F1E9D3" transform="translate(270,585)"/>
<path d="M0 0 C2 2 2 2 2 5 C-1.3 5.33 -4.6 5.66 -8 6 C-3.375 1.125 -3.375 1.125 0 0 Z " fill="#EADBC5" transform="translate(225,58)"/>
<path d="M0 0 C2 3 2 3 2 5 C-1.375 5.625 -1.375 5.625 -5 6 C-5.66 5.34 -6.32 4.68 -7 4 C-4.69 2.68 -2.38 1.36 0 0 Z " fill="#F3E9D3" transform="translate(61,247)"/>
<path d="M0 0 C0 0.66 0 1.32 0 2 C-3.75960806 5.75960806 -6.75900345 6.58894145 -12 7 C-9.20232475 3.70861735 -4.40323273 0 0 0 Z " fill="#314254" transform="translate(579,119)"/>
<path d="M0 0 C4.95 0.33 9.9 0.66 15 1 C15 1.33 15 1.66 15 2 C11.92382812 2.29296875 11.92382812 2.29296875 8.84765625 2.5859375 C8.23792969 2.72257812 7.62820312 2.85921875 7 3 C6.67 3.66 6.34 4.32 6 5 C3.98079663 3.69593116 1.98075027 2.36176581 0 1 C0 0.67 0 0.34 0 0 Z " fill="#EEEAD5" transform="translate(59,507)"/>
<path d="M0 0 C3.34998521 1.11666174 3.79340222 1.74694925 5.6875 4.5625 C6.12449219 5.20316406 6.56148437 5.84382813 7.01171875 6.50390625 C7.33785156 6.99761719 7.66398438 7.49132812 8 8 C7.01 8 6.02 8 5 8 C4.34 7.34 3.68 6.68 3 6 C1.68252676 5.30251417 0.35085807 4.63040043 -1 4 C-0.67 2.68 -0.34 1.36 0 0 Z " fill="#274157" transform="translate(534,108)"/>
<path d="M0 0 C0.33 0.66 0.66 1.32 1 2 C-2.32307692 5.93846154 -2.32307692 5.93846154 -5.75 6.25 C-6.4925 6.1675 -7.235 6.085 -8 6 C-5.51047079 3.33264727 -3.36591866 1.44253657 0 0 Z " fill="#F2E7CC" transform="translate(200,165)"/>
<path d="M0 0 C-1.44253657 3.36591866 -3.33264727 5.51047079 -6 8 C-5.40138258 5.64828869 -4.73075648 3.3140622 -4 1 C-2 0 -2 0 0 0 Z " fill="#F1EBD5" transform="translate(207,162)"/>
<path d="M0 0 C0 0.33 0 0.66 0 1 C-1.60341555 1.33692785 -3.20776555 1.66941093 -4.8125 2 C-5.70582031 2.185625 -6.59914063 2.37125 -7.51953125 2.5625 C-10 3 -10 3 -13 3 C-12 1 -12 1 -10.4375 0.375 C-6.93601819 -0.16368951 -3.54193167 -0.05903219 0 0 Z " fill="#D3C9B8" transform="translate(82,508)"/>
<path d="M0 0 C1 2 1 2 0.375 4 C-1.39265071 6.57112831 -3.07589059 7.07659703 -6 8 C-4.02 5.36 -2.04 2.72 0 0 Z " fill="#0C2A47" transform="translate(168,218)"/>
<path d="M0 0 C0.66 0 1.32 0 2 0 C3.01866229 1.65532623 4.01810813 3.32260138 5 5 C5.66 5.33 6.32 5.66 7 6 C7 6.66 7 7.32 7 8 C3.64379729 6.61122646 1.92701272 5.08322035 0 2 C0 1.34 0 0.68 0 0 Z " fill="#274158" transform="translate(141,79)"/>
<path d="M0 0 C-2.90092502 1.93395001 -3.89674737 2.30131941 -7.1875 2.625 C-8.445625 2.74875 -9.70375 2.8725 -11 3 C-6.7849044 -0.23157329 -5.27490657 -1.24931998 0 0 Z " fill="#F7F1DC" transform="translate(217,65)"/>
<path d="M0 0 C0.66 1.32 1.32 2.64 2 4 C0.02 4.99 0.02 4.99 -2 6 C-2 6.66 -2 7.32 -2 8 C-2.66 8 -3.32 8 -4 8 C-2.87548273 5.0280615 -1.77706209 2.66559313 0 0 Z " fill="#304154" transform="translate(144,58)"/>
<path d="M0 0 C0 0.66 0 1.32 0 2 C-5.625 3.125 -5.625 3.125 -9 2 C-9 1.67 -9 1.34 -9 1 C-5.846632 0.29925156 -3.27275026 0 0 0 Z " fill="#E1DBC9" transform="translate(406,505)"/>
<path d="M0 0 C0.66 0.33 1.32 0.66 2 1 C1.01 2.485 1.01 2.485 0 4 C-3.625 4.6875 -3.625 4.6875 -7 5 C-4.702779 3.25728062 -2.40133271 1.60088848 0 0 Z " fill="#3B4354" transform="translate(170,145)"/>
<path d="M0 0 C3.3 0 6.6 0 10 0 C10 0.33 10 0.66 10 1 C6.7 1 3.4 1 0 1 C0 0.67 0 0.34 0 0 Z " fill="#DC5434" transform="translate(233,92)"/>
<path d="M0 0 C0.33 0 0.66 0 1 0 C1 2.64 1 5.28 1 8 C0.67 8 0.34 8 0 8 C0 5.36 0 2.72 0 0 Z " fill="#DD5536" transform="translate(468,464)"/>
<path d="M0 0 C2.64 0 5.28 0 8 0 C8 0.33 8 0.66 8 1 C5.36 1 2.72 1 0 1 C0 0.67 0 0.34 0 0 Z " fill="#DD5435" transform="translate(215,92)"/>
<path d="M0 0 C0.33 0 0.66 0 1 0 C1 2.31 1 4.62 1 7 C0.67 7 0.34 7 0 7 C0 4.69 0 2.38 0 0 Z " fill="#DD5636" transform="translate(468,364)"/>
<path d="M0 0 C0.33 0 0.66 0 1 0 C1 2.31 1 4.62 1 7 C0.67 7 0.34 7 0 7 C0 4.69 0 2.38 0 0 Z " fill="#DD5536" transform="translate(468,356)"/>
<path d="M0 0 C0.33 0 0.66 0 1 0 C1 1.98 1 3.96 1 6 C0.67 6 0.34 6 0 6 C0 4.02 0 2.04 0 0 Z " fill="#DC5434" transform="translate(468,477)"/>
<path d="M0 0 C0.33 0 0.66 0 1 0 C1 1.98 1 3.96 1 6 C0.67 6 0.34 6 0 6 C0 4.02 0 2.04 0 0 Z " fill="#DD5536" transform="translate(468,430)"/>
<path d="M0 0 C0.33 0 0.66 0 1 0 C1 1.98 1 3.96 1 6 C0.67 6 0.34 6 0 6 C0 4.02 0 2.04 0 0 Z " fill="#DD5535" transform="translate(468,310)"/>
<path d="M0 0 C1 4 1 4 1 4 Z " fill="#DA5434" transform="translate(467,485)"/>
<path d="M0 0 C1 4 1 4 1 4 Z " fill="#DD5435" transform="translate(468,348)"/>
<path d="" fill="#DD5534" transform="translate(0,0)"/>
<path d="" fill="#DD5537" transform="translate(0,0)"/>
<path d="" fill="#DD5536" transform="translate(0,0)"/>
<path d="" fill="#DD5534" transform="translate(0,0)"/>
<path d="" fill="#DD5535" transform="translate(0,0)"/>
<path d="" fill="#DC5735" transform="translate(0,0)"/>
<path d="M0 0 C3 1 3 1 3 1 Z " fill="#DC5638" transform="translate(270,93)"/>
<path d="M0 0 C3 1 3 1 3 1 Z " fill="#DB5334" transform="translate(224,92)"/>
<path d="M0 0 C3 1 3 1 3 1 Z " fill="#DD5536" transform="translate(193,92)"/>
<path d="M0 0 C3 1 3 1 3 1 Z " fill="#DD5534" transform="translate(275,1)"/>
<path d="M0 0 C3 1 3 1 3 1 Z " fill="#DC5533" transform="translate(342,0)"/>
<path d="M0 0 C2 1 2 1 2 1 Z " fill="#DD5833" transform="translate(213,637)"/>
<path d="" fill="#DE5536" transform="translate(0,0)"/>
<path d="" fill="#DE5536" transform="translate(0,0)"/>
<path d="" fill="#DD5535" transform="translate(0,0)"/>
<path d="" fill="#DE5635" transform="translate(0,0)"/>
<path d="" fill="#DD5537" transform="translate(0,0)"/>
<path d="" fill="#DC5638" transform="translate(0,0)"/>
<path d="" fill="#DD5434" transform="translate(0,0)"/>
<path d="" fill="#DA5437" transform="translate(0,0)"/>
<path d="M0 0 C2 1 2 1 2 1 Z " fill="#DD5435" transform="translate(209,92)"/>
<path d="M0 0 C2 1 2 1 2 1 Z " fill="#DD5536" transform="translate(205,92)"/>
<path d="" fill="#DC5537" transform="translate(0,0)"/>
<path d="" fill="#DC5637" transform="translate(0,0)"/>
<path d="" fill="#DA5739" transform="translate(0,0)"/>
<path d="" fill="#DD5638" transform="translate(0,0)"/>
<path d="" fill="#DE5835" transform="translate(0,0)"/>
<path d="" fill="#DD5333" transform="translate(0,0)"/>
<path d="" fill="#DD5738" transform="translate(0,0)"/>
<path d="" fill="#DE5836" transform="translate(0,0)"/>
<path d="" fill="#DD553A" transform="translate(0,0)"/>
<path d="" fill="#DD5737" transform="translate(0,0)"/>
<path d="" fill="#DC5239" transform="translate(0,0)"/>
<path d="" fill="#DE5834" transform="translate(0,0)"/>
<path d="" fill="#DE5738" transform="translate(0,0)"/>
<path d="" fill="#DD5637" transform="translate(0,0)"/>
<path d="" fill="#DE5533" transform="translate(0,0)"/>
<path d="" fill="#DE5434" transform="translate(0,0)"/>
<path d="" fill="#DE5336" transform="translate(0,0)"/>
<path d="" fill="#DD5436" transform="translate(0,0)"/>
<path d="" fill="#DE5837" transform="translate(0,0)"/>
<path d="" fill="#DC5634" transform="translate(0,0)"/>
<path d="" fill="#DD5434" transform="translate(0,0)"/>
<path d="" fill="#DC5233" transform="translate(0,0)"/>
<path d="" fill="#DE5536" transform="translate(0,0)"/>
<path d="" fill="#DE5436" transform="translate(0,0)"/>
<path d="" fill="#DD5635" transform="translate(0,0)"/>
<path d="" fill="#DC5538" transform="translate(0,0)"/>
<path d="" fill="#DE5834" transform="translate(0,0)"/>
<path d="" fill="#DD5635" transform="translate(0,0)"/>
<path d="" fill="#DC5438" transform="translate(0,0)"/>
<path d="" fill="#DE5635" transform="translate(0,0)"/>
<path d="" fill="#DE5633" transform="translate(0,0)"/>
<path d="" fill="#DD5736" transform="translate(0,0)"/>
<path d="" fill="#DE5535" transform="translate(0,0)"/>
<path d="" fill="#DE5535" transform="translate(0,0)"/>
<path d="" fill="#DE5537" transform="translate(0,0)"/>
<path d="" fill="#DE5536" transform="translate(0,0)"/>
<path d="" fill="#DE5636" transform="translate(0,0)"/>
<path d="" fill="#DE5635" transform="translate(0,0)"/>
<path d="" fill="#DE5636" transform="translate(0,0)"/>
<path d="" fill="#DD5637" transform="translate(0,0)"/>
<path d="" fill="#DE5635" transform="translate(0,0)"/>
<path d="" fill="#DE5534" transform="translate(0,0)"/>
<path d="" fill="#DE5836" transform="translate(0,0)"/>
<path d="" fill="#DE5537" transform="translate(0,0)"/>
<path d="" fill="#DD5634" transform="translate(0,0)"/>
<path d="" fill="#DE5733" transform="translate(0,0)"/>
<path d="" fill="#DD5436" transform="translate(0,0)"/>
<path d="" fill="#DB5533" transform="translate(0,0)"/>
<path d="" fill="#D95633" transform="translate(0,0)"/>
<path d="" fill="#DE5534" transform="translate(0,0)"/>
<path d="" fill="#DE5534" transform="translate(0,0)"/>
<path d="" fill="#DC5634" transform="translate(0,0)"/>
<path d="" fill="#DD5A34" transform="translate(0,0)"/>
<path d="" fill="#DE5434" transform="translate(0,0)"/>
<path d="" fill="#DE5734" transform="translate(0,0)"/>
<path d="" fill="#DE5636" transform="translate(0,0)"/>
<path d="" fill="#DE5534" transform="translate(0,0)"/>
<path d="" fill="#DD5432" transform="translate(0,0)"/>
<path d="" fill="#DE5636" transform="translate(0,0)"/>
<path d="" fill="#DE5434" transform="translate(0,0)"/>
<path d="" fill="#D05630" transform="translate(0,0)"/>
<path d="" fill="#D95435" transform="translate(0,0)"/>
<path d="" fill="#DC5734" transform="translate(0,0)"/>
<path d="" fill="#DD5535" transform="translate(0,0)"/>
<path d="" fill="#DE5736" transform="translate(0,0)"/>
<path d="" fill="#DC5232" transform="translate(0,0)"/>
<path d="" fill="#D95534" transform="translate(0,0)"/>
<path d="" fill="#DE5237" transform="translate(0,0)"/>
<path d="" fill="#DE573B" transform="translate(0,0)"/>
<path d="" fill="#DD5736" transform="translate(0,0)"/>
<path d="" fill="#DE5735" transform="translate(0,0)"/>
<path d="" fill="#DA5534" transform="translate(0,0)"/>
<path d="" fill="#DD5839" transform="translate(0,0)"/>
<path d="" fill="#DB5739" transform="translate(0,0)"/>
<path d="" fill="#DE5130" transform="translate(0,0)"/>
<path d="" fill="#DE5634" transform="translate(0,0)"/>
<path d="" fill="#D85835" transform="translate(0,0)"/>
<path d="" fill="#DD5834" transform="translate(0,0)"/>
<path d="" fill="#DD5A38" transform="translate(0,0)"/>
<path d="" fill="#DE5736" transform="translate(0,0)"/>
<path d="" fill="#DE5839" transform="translate(0,0)"/>
<path d="" fill="#DD5736" transform="translate(0,0)"/>
<path d="" fill="#DC5637" transform="translate(0,0)"/>
<path d="" fill="#DE5333" transform="translate(0,0)"/>
<path d="" fill="#DD5736" transform="translate(0,0)"/>
<path d="" fill="#DB5637" transform="translate(0,0)"/>
<path d="" fill="#DD5834" transform="translate(0,0)"/>
<path d="" fill="#DD582C" transform="translate(0,0)"/>
<path d="" fill="#DE5534" transform="translate(0,0)"/>
<path d="" fill="#DE5637" transform="translate(0,0)"/>
<path d="" fill="#DC5834" transform="translate(0,0)"/>
<path d="" fill="#DE5535" transform="translate(0,0)"/>
<path d="" fill="#DC5433" transform="translate(0,0)"/>
<path d="" fill="#DC5434" transform="translate(0,0)"/>
<path d="" fill="#DE5737" transform="translate(0,0)"/>
<path d="" fill="#DD5235" transform="translate(0,0)"/>
<path d="" fill="#DE5435" transform="translate(0,0)"/>
<path d="" fill="#DC4E38" transform="translate(0,0)"/>
<path d="" fill="#DC5735" transform="translate(0,0)"/>
<path d="" fill="#DB5832" transform="translate(0,0)"/>
<path d="" fill="#DE5634" transform="translate(0,0)"/>
<path d="" fill="#DE5136" transform="translate(0,0)"/>
<path d="" fill="#DD5734" transform="translate(0,0)"/>
<path d="" fill="#DE5531" transform="translate(0,0)"/>
<path d="" fill="#DE5534" transform="translate(0,0)"/>
<path d="" fill="#DB5634" transform="translate(0,0)"/>
<path d="" fill="#DE5635" transform="translate(0,0)"/>
<path d="" fill="#DD5631" transform="translate(0,0)"/>
<path d="" fill="#DB5430" transform="translate(0,0)"/>
<path d="" fill="#D85337" transform="translate(0,0)"/>
<path d="" fill="#DE5635" transform="translate(0,0)"/>
<path d="" fill="#DE5735" transform="translate(0,0)"/>
<path d="" fill="#DD5536" transform="translate(0,0)"/>
<path d="" fill="#DE5336" transform="translate(0,0)"/>
<path d="" fill="#DE5434" transform="translate(0,0)"/>
<path d="" fill="#DD5635" transform="translate(0,0)"/>
<path d="" fill="#DE5437" transform="translate(0,0)"/>
<path d="" fill="#DE5735" transform="translate(0,0)"/>
<path d="" fill="#DD5635" transform="translate(0,0)"/>
<path d="" fill="#DE5434" transform="translate(0,0)"/>
<path d="" fill="#DE5635" transform="translate(0,0)"/>
<path d="" fill="#DE5635" transform="translate(0,0)"/>
<path d="" fill="#DD5435" transform="translate(0,0)"/>
<path d="" fill="#DB5A36" transform="translate(0,0)"/>
<path d="" fill="#DB5636" transform="translate(0,0)"/>
<path d="" fill="#DC5535" transform="translate(0,0)"/>
<path d="" fill="#DD5736" transform="translate(0,0)"/>
<path d="" fill="#DE5534" transform="translate(0,0)"/>
<path d="" fill="#DD5336" transform="translate(0,0)"/>
<path d="" fill="#DE573C" transform="translate(0,0)"/>
<path d="" fill="#DE5636" transform="translate(0,0)"/>
<path d="" fill="#DC5535" transform="translate(0,0)"/>
<path d="" fill="#DD5935" transform="translate(0,0)"/>
<path d="" fill="#DE5434" transform="translate(0,0)"/>
<path d="" fill="#DD5735" transform="translate(0,0)"/>
<path d="" fill="#DE5735" transform="translate(0,0)"/>
<path d="" fill="#DE5537" transform="translate(0,0)"/>
<path d="" fill="#DD5537" transform="translate(0,0)"/>
<path d="" fill="#DC5337" transform="translate(0,0)"/>
</svg>
