<?xml version="1.0" standalone="no"?>
<!DOCTYPE svg PUBLIC "-//W3C//DTD SVG 20010904//EN"
 "http://www.w3.org/TR/2001/REC-SVG-20010904/DTD/svg10.dtd">
<svg version="1.0" xmlns="http://www.w3.org/2000/svg"
 width="1024.000000pt" height="1024.000000pt" viewBox="0 0 1024.000000 1024.000000"
 preserveAspectRatio="xMidYMid meet">

<g transform="translate(0.000000,1024.000000) scale(0.100000,-0.100000)"
fill="#000000" stroke="none">
<path d="M4860 8981 c-246 -38 -466 -119 -707 -259 -105 -62 -138 -112 -113
-173 19 -44 73 -85 222 -168 150 -84 161 -86 282 -53 131 36 276 48 419 34
205 -21 342 -60 529 -153 157 -77 296 -179 420 -306 66 -67 168 -206 168 -228
0 -6 -63 -41 -140 -78 -112 -53 -144 -74 -160 -100 -24 -38 -25 -65 -5 -94 8
-12 121 -73 253 -138 246 -120 640 -326 679 -354 13 -9 22 -25 20 -36 -2 -19
-11 -20 -193 -25 -212 -6 -205 -4 -311 -93 -25 -21 -59 -38 -82 -42 -41 -7
-47 -5 -229 74 -126 55 -211 72 -362 72 -151 0 -235 -17 -352 -69 -121 -55
-178 -52 -238 13 l-25 27 -5 471 -5 472 -27 52 c-15 28 -43 67 -62 85 -39 38
-233 152 -806 473 -699 393 -703 395 -790 395 -86 0 -191 -52 -615 -302 -126
-74 -366 -213 -533 -309 -337 -194 -387 -228 -418 -283 -44 -78 -45 -108 -42
-946 l3 -795 23 -57 c13 -33 42 -77 68 -103 37 -38 541 -379 1152 -779 160
-105 212 -126 304 -126 59 0 101 7 171 30 138 44 165 40 203 -30 18 -33 19
-65 22 -482 2 -305 0 -460 -8 -488 -15 -55 -72 -117 -121 -130 -28 -8 -64 -7
-141 5 -57 9 -132 20 -168 25 -36 5 -211 10 -390 12 -321 2 -326 2 -372 -20
-26 -13 -63 -41 -82 -62 -69 -76 -67 -48 -64 -1006 l3 -859 27 -57 c33 -71 75
-113 147 -147 l56 -26 315 0 c401 1 451 10 765 141 72 30 103 37 157 38 64 0
74 -3 214 -73 247 -123 357 -151 593 -151 197 1 284 20 511 114 116 49 166 48
246 0 32 -20 77 -45 99 -55 38 -18 98 -19 1461 -19 1393 0 1423 0 1486 20 82
25 147 80 179 152 l24 53 0 900 0 900 -26 50 c-42 80 -88 102 -228 110 -70 4
-125 12 -143 21 -52 27 -58 59 -58 319 0 312 -2 307 166 375 231 94 278 154
304 385 5 50 10 147 10 216 0 149 -16 217 -64 265 -48 48 -98 58 -258 50
l-136 -7 -4 528 c-3 518 -3 529 -25 568 -25 48 -58 80 -96 94 -37 14 -490 14
-554 1 -34 -8 -73 -29 -128 -70 -84 -64 -121 -74 -162 -45 -46 33 -44 79 36
660 113 818 113 811 57 836 -40 19 -87 3 -209 -71 -63 -39 -119 -70 -123 -70
-5 1 -27 24 -49 52 -74 94 -279 300 -380 381 -341 273 -705 433 -1090 477
-134 15 -363 11 -495 -9z m591 -310 c487 -85 929 -387 1231 -840 28 -42 54
-80 58 -84 4 -5 51 15 104 43 53 29 103 49 111 46 8 -3 15 -17 15 -31 0 -68
-82 -641 -93 -653 -7 -7 -27 -16 -44 -21 -40 -12 -84 9 -378 174 -240 135
-245 138 -245 145 0 4 45 32 100 64 88 51 100 61 94 80 -11 37 -130 232 -191
313 -84 113 -243 269 -353 347 -111 79 -317 183 -445 225 -166 55 -322 82
-516 88 -157 5 -398 -7 -451 -23 -10 -3 -18 -1 -18 4 0 26 296 113 465 137
137 20 403 13 556 -14z m-1919 -305 c235 -127 859 -473 878 -486 24 -17 -62
-6 -595 76 -269 42 -539 83 -600 92 -87 14 -110 20 -113 34 -4 18 181 357 201
370 27 17 63 4 229 -86z m-490 32 c-11 -18 -59 -99 -107 -181 l-88 -147 -51
-15 c-91 -26 -599 -136 -614 -133 -13 3 850 504 871 507 5 1 0 -14 -11 -31z
m-356 -593 c4 -8 -32 -83 -82 -171 -448 -790 -682 -1198 -690 -1201 -13 -4 -9
1236 5 1250 12 12 665 135 724 136 25 1 40 -4 43 -14z m408 -51 c27 -20 39
-37 148 -214 114 -186 250 -402 331 -530 44 -69 86 -143 93 -166 9 -30 10 -77
3 -180 -4 -76 -8 -196 -9 -266 0 -121 -1 -128 -22 -140 -18 -10 -170 -12 -743
-10 -713 4 -720 4 -742 25 -44 40 -45 39 174 432 304 545 560 993 582 1019 49
58 128 71 185 30z m642 -118 c60 -28 94 -67 94 -109 0 -47 -25 -67 -85 -67
-126 0 -248 116 -188 182 24 27 114 24 179 -6z m418 -27 c115 -32 190 -135
139 -191 -35 -39 -126 -6 -193 69 -45 51 -54 104 -22 122 22 13 29 13 76 0z
m556 -484 c0 -310 -2 -365 -14 -365 -8 0 -68 9 -133 20 -65 11 -119 20 -120
20 -11 0 10 62 96 287 142 370 155 403 163 403 5 0 8 -164 8 -365z m-265 -480
c197 -40 325 -148 386 -325 18 -52 22 -88 23 -180 0 -65 -5 -139 -13 -170 -23
-95 -77 -185 -152 -253 l-67 -61 17 -35 c9 -20 76 -148 149 -285 73 -137 132
-256 130 -265 -2 -10 -18 -18 -48 -22 -77 -11 -356 -22 -379 -14 -29 9 -49 52
-126 271 -93 268 -94 272 -111 278 -9 3 -24 1 -35 -4 -17 -10 -19 -22 -18
-133 1 -67 4 -182 8 -256 8 -174 22 -164 -223 -159 -101 1 -188 6 -191 10 -4
4 -8 368 -8 809 0 781 0 803 19 811 34 15 550 1 639 -17z m1354 -8 c213 -75
350 -250 408 -517 22 -105 25 -449 5 -545 -67 -306 -215 -484 -453 -540 -96
-22 -267 -20 -359 6 -277 76 -430 318 -455 719 -8 125 7 306 35 415 27 106 97
247 157 314 58 67 144 123 226 150 89 29 98 30 237 27 105 -2 137 -7 199 -29z
m991 14 c6 -13 6 -95 -1 -258 -5 -131 -9 -402 -7 -603 l3 -365 170 0 c94 0
202 4 242 8 65 8 72 7 77 -10 6 -19 -28 -317 -40 -356 -3 -10 -15 -21 -27 -25
-39 -13 -834 1 -848 15 -7 7 -12 27 -12 45 0 18 4 247 8 508 4 283 3 586 -3
750 -7 183 -7 279 0 287 11 13 74 18 285 21 131 2 143 0 153 -17z m1060 3 c9
-9 9 -81 0 -280 -15 -336 -10 -928 7 -945 9 -9 63 -9 239 0 125 6 231 8 235 4
10 -10 -30 -374 -43 -390 -13 -16 -857 -6 -876 11 -10 10 -10 100 -1 451 6
251 8 592 4 794 -6 292 -5 355 6 362 21 14 415 7 429 -7z m-4464 -650 c55 -6
78 -33 71 -79 -7 -44 -229 -471 -265 -508 -36 -38 -62 -42 -109 -18 -64 32
-849 549 -897 590 -17 15 -17 16 15 22 39 7 1122 1 1185 -7z m2854 -1164 c6
-12 9 -69 8 -142 l-3 -123 -128 0 c-116 0 -129 -2 -139 -19 -8 -14 -9 -114 -5
-323 4 -259 3 -306 -10 -318 -22 -23 -281 -22 -290 1 -3 9 -6 160 -7 337 l-1
322 -75 -5 c-41 -2 -100 -5 -130 -5 l-55 0 -3 123 c-1 72 2 130 8 142 10 19
24 20 378 23 202 1 384 3 404 5 29 1 40 -3 48 -18z m-954 -426 c1 -237 5 -440
8 -452 4 -12 2 -30 -4 -42 -10 -19 -20 -20 -149 -20 -99 0 -141 4 -148 13 -7
9 -11 918 -4 935 0 1 67 1 148 0 l147 -3 2 -431z m-2248 -624 c153 -14 252
-39 344 -87 183 -96 300 -275 344 -526 25 -139 15 -390 -20 -516 -40 -143 -95
-241 -190 -337 -65 -66 -98 -89 -168 -123 -147 -71 -230 -83 -578 -85 l-295
-1 3 655 c2 360 -1 732 -6 825 -6 100 -6 177 -1 187 5 9 19 18 31 20 46 6 417
-2 536 -12z m1691 -10 c247 -88 396 -324 432 -680 19 -193 -4 -431 -57 -591
-52 -158 -163 -294 -289 -354 -109 -52 -146 -59 -305 -59 -133 0 -152 2 -225
27 -103 36 -160 73 -233 152 -125 133 -180 282 -202 539 -12 144 3 344 35 472
69 271 231 455 448 510 35 9 99 12 192 10 114 -3 152 -7 204 -26z m2310 -9 c5
-7 7 -21 5 -30 -2 -9 -39 -185 -83 -391 -143 -668 -209 -983 -231 -1095 -12
-60 -28 -117 -36 -125 -12 -12 -50 -15 -214 -15 -136 0 -203 4 -210 11 -7 7
-27 97 -45 200 -39 217 -105 547 -111 553 -10 10 -18 -21 -75 -275 -32 -148
-69 -313 -81 -367 -11 -53 -27 -102 -35 -108 -20 -17 -395 -18 -415 -1 -9 7
-24 61 -38 135 -21 114 -185 920 -264 1300 -19 93 -33 174 -30 182 9 22 30 26
213 32 163 5 178 4 199 -13 20 -17 26 -45 58 -274 36 -259 99 -682 110 -733 3
-16 8 -26 11 -24 9 9 34 135 104 511 39 210 76 392 82 405 8 15 25 28 46 34
51 13 267 5 282 -10 7 -7 41 -186 75 -398 68 -423 92 -542 104 -529 5 5 29
144 54 309 110 716 109 713 139 725 12 5 102 9 200 7 137 -1 180 -5 186 -16z
m471 -1 c10 -6 32 -38 49 -73 16 -34 86 -183 156 -332 70 -148 144 -304 164
-345 l36 -75 4 70 c1 39 -3 221 -10 406 -7 185 -9 344 -6 353 6 14 29 16 191
16 129 0 187 -3 192 -12 4 -6 7 -380 6 -831 -1 -659 -4 -822 -14 -829 -19 -13
-334 -3 -351 11 -8 6 -51 91 -96 188 -45 98 -133 282 -196 408 l-115 230 5
-270 c3 -148 10 -330 14 -404 5 -74 7 -140 4 -147 -7 -20 -73 -26 -250 -22
-106 2 -166 7 -174 15 -8 8 -8 112 1 430 7 230 11 595 8 811 -3 275 -1 395 6
401 6 5 27 12 46 14 57 8 309 -2 330 -13z"/>
<path d="M2730 7121 c-103 -32 -163 -110 -130 -171 17 -33 55 -33 116 0 67 35
83 37 112 10 49 -46 15 -114 -139 -274 -65 -68 -123 -135 -128 -150 -14 -35 2
-74 34 -86 15 -6 104 -10 199 -10 203 0 211 3 211 75 0 67 -16 75 -138 75
l-100 0 84 88 c47 48 95 109 109 136 57 119 24 252 -74 297 -42 19 -111 23
-156 10z"/>
<path d="M3165 7112 c-48 -31 -82 -73 -112 -137 -24 -52 -28 -75 -31 -172 -5
-152 18 -234 86 -302 96 -96 218 -92 304 9 48 56 70 126 75 246 8 163 -36 283
-125 344 -48 34 -154 40 -197 12z m130 -146 c35 -35 48 -97 43 -211 -4 -110
-22 -158 -63 -177 -19 -9 -30 -7 -50 6 -42 28 -58 79 -59 186 -1 106 19 179
57 205 30 21 44 19 72 -9z"/>
<path d="M4206 6313 c-2 -10 -6 -107 -8 -216 -3 -218 -4 -217 60 -217 136 0
231 147 188 293 -28 97 -101 157 -190 157 -34 0 -46 -4 -50 -17z"/>
<path d="M5520 6299 c-61 -25 -112 -106 -136 -218 -21 -98 -29 -311 -15 -412
27 -200 75 -278 185 -298 178 -33 265 142 254 512 -8 239 -50 366 -138 409
-38 20 -110 23 -150 7z"/>
<path d="M2918 3414 c-5 -4 -8 -209 -8 -454 0 -388 2 -449 15 -460 19 -15 107
-7 179 17 134 43 216 213 216 442 -1 296 -105 447 -319 459 -42 2 -79 1 -83
-4z"/>
<path d="M4435 3438 c-63 -34 -110 -106 -140 -214 -23 -80 -32 -373 -15 -486
21 -147 68 -234 144 -269 113 -51 226 3 275 134 31 86 41 166 41 355 0 293
-45 431 -157 478 -39 17 -120 18 -148 2z"/>
</g>
</svg>
